<mxfile host="app.diagrams.net" modified="2023-08-04T11:50:24.436Z" agent="Mozilla/5.0 (X11; Ubuntu; Linux x86_64; rv:109.0) Gecko/20100101 Firefox/115.0" etag="RUygld0GvprWzffz0rI6" version="21.6.6">
  <diagram name="Page-1" id="1HuU1hVHdn6Hl-eVWaE_">
    <mxGraphModel dx="1434" dy="746" grid="1" gridSize="10" guides="1" tooltips="1" connect="1" arrows="1" fold="1" page="1" pageScale="1" pageWidth="850" pageHeight="1100" math="0" shadow="0">
      <root>
        <mxCell id="0" />
        <mxCell id="1" parent="0" />
        <mxCell id="RVN6RpA0SK8-NVd5WU3v-9" value="" style="edgeStyle=orthogonalEdgeStyle;rounded=1;orthogonalLoop=1;jettySize=auto;html=1;labelBackgroundColor=none;fontColor=default;sketch=1;curveFitting=1;jiggle=2;strokeColor=#A8201A;" edge="1" parent="1" source="RVN6RpA0SK8-NVd5WU3v-1" target="RVN6RpA0SK8-NVd5WU3v-8">
          <mxGeometry relative="1" as="geometry" />
        </mxCell>
        <mxCell id="RVN6RpA0SK8-NVd5WU3v-1" value="Actor" style="shape=umlActor;verticalLabelPosition=bottom;verticalAlign=top;html=1;outlineConnect=0;labelBackgroundColor=none;rounded=1;sketch=1;curveFitting=1;jiggle=2;fillColor=#FAE5C7;strokeColor=#0F8B8D;fontColor=#143642;" vertex="1" parent="1">
          <mxGeometry x="40" y="105" width="30" height="60" as="geometry" />
        </mxCell>
        <mxCell id="RVN6RpA0SK8-NVd5WU3v-14" style="edgeStyle=orthogonalEdgeStyle;rounded=0;sketch=1;hachureGap=4;jiggle=2;curveFitting=1;orthogonalLoop=1;jettySize=auto;html=1;exitX=1;exitY=0.7;exitDx=0;exitDy=0;entryX=0.063;entryY=0.857;entryDx=0;entryDy=0;entryPerimeter=0;strokeColor=#A8201A;fontFamily=Architects Daughter;fontSource=https%3A%2F%2Ffonts.googleapis.com%2Fcss%3Ffamily%3DArchitects%2BDaughter;fontSize=16;fontColor=#143642;fillColor=#FAE5C7;" edge="1" parent="1" source="RVN6RpA0SK8-NVd5WU3v-5" target="RVN6RpA0SK8-NVd5WU3v-7">
          <mxGeometry relative="1" as="geometry" />
        </mxCell>
        <mxCell id="RVN6RpA0SK8-NVd5WU3v-5" value="&lt;h3&gt;&lt;font data-darkreader-inline-color=&quot;&quot; style=&quot;--darkreader-inline-color: #e8e6e3;&quot; color=&quot;#000000&quot;&gt;REDIS QUEUE&lt;/font&gt;&lt;/h3&gt;" style="shape=datastore;whiteSpace=wrap;html=1;labelBackgroundColor=none;rounded=1;sketch=1;curveFitting=1;jiggle=2;fillColor=#FAE5C7;strokeColor=#0F8B8D;fontColor=#143642;" vertex="1" parent="1">
          <mxGeometry x="340" y="240" width="100" height="130" as="geometry" />
        </mxCell>
        <mxCell id="RVN6RpA0SK8-NVd5WU3v-10" style="edgeStyle=orthogonalEdgeStyle;rounded=1;orthogonalLoop=1;jettySize=auto;html=1;entryX=1;entryY=0.569;entryDx=0;entryDy=0;entryPerimeter=0;labelBackgroundColor=none;fontColor=default;sketch=1;curveFitting=1;jiggle=2;strokeColor=#A8201A;" edge="1" parent="1" source="RVN6RpA0SK8-NVd5WU3v-7" target="RVN6RpA0SK8-NVd5WU3v-5">
          <mxGeometry relative="1" as="geometry" />
        </mxCell>
        <mxCell id="RVN6RpA0SK8-NVd5WU3v-7" value="&lt;div&gt;&lt;h3&gt;&lt;br&gt;&lt;/h3&gt;&lt;h3&gt;&lt;font color=&quot;#000000&quot;&gt;30s task for exchange events&lt;/font&gt;&lt;/h3&gt;&lt;/div&gt;&lt;div&gt;&lt;h3&gt;&lt;font color=&quot;#000000&quot;&gt;&lt;br&gt;&lt;/font&gt;&lt;/h3&gt;&lt;/div&gt;" style="shape=process;whiteSpace=wrap;html=1;backgroundOutline=1;labelBackgroundColor=none;rounded=1;sketch=1;curveFitting=1;jiggle=2;fillColor=#FAE5C7;strokeColor=#0F8B8D;fontColor=#143642;" vertex="1" parent="1">
          <mxGeometry x="650" y="190" width="160" height="70" as="geometry" />
        </mxCell>
        <mxCell id="RVN6RpA0SK8-NVd5WU3v-11" style="edgeStyle=orthogonalEdgeStyle;rounded=1;orthogonalLoop=1;jettySize=auto;html=1;entryX=0.5;entryY=0;entryDx=0;entryDy=0;labelBackgroundColor=none;fontColor=default;sketch=1;curveFitting=1;jiggle=2;strokeColor=#A8201A;" edge="1" parent="1" source="RVN6RpA0SK8-NVd5WU3v-8" target="RVN6RpA0SK8-NVd5WU3v-5">
          <mxGeometry relative="1" as="geometry" />
        </mxCell>
        <mxCell id="RVN6RpA0SK8-NVd5WU3v-8" value="&lt;h3&gt;&lt;font color=&quot;#000000&quot;&gt;processing by request and add it to queue&lt;/font&gt;&lt;/h3&gt;" style="shape=process;whiteSpace=wrap;html=1;backgroundOutline=1;verticalAlign=top;labelBackgroundColor=none;rounded=1;sketch=1;curveFitting=1;jiggle=2;fillColor=#FAE5C7;strokeColor=#0F8B8D;fontColor=#143642;" vertex="1" parent="1">
          <mxGeometry x="220" y="90" width="180" height="90" as="geometry" />
        </mxCell>
        <mxCell id="RVN6RpA0SK8-NVd5WU3v-15" value="buy request" style="text;html=1;align=center;verticalAlign=middle;resizable=0;points=[];autosize=1;strokeColor=none;fillColor=none;fontSize=20;fontFamily=Architects Daughter;fontColor=#143642;" vertex="1" parent="1">
          <mxGeometry x="70" y="103" width="140" height="40" as="geometry" />
        </mxCell>
      </root>
    </mxGraphModel>
  </diagram>
</mxfile>
